<?xml version="1.0" encoding="UTF-8" standalone="no"?>
<svg
   xmlns:dc="http://purl.org/dc/elements/1.1/"
   xmlns:cc="http://creativecommons.org/ns#"
   xmlns:rdf="http://www.w3.org/1999/02/22-rdf-syntax-ns#"
   xmlns:svg="http://www.w3.org/2000/svg"
   xmlns="http://www.w3.org/2000/svg"
   xmlns:sodipodi="http://sodipodi.sourceforge.net/DTD/sodipodi-0.dtd"
   xmlns:inkscape="http://www.inkscape.org/namespaces/inkscape"
   version="1.1"
   id="svg2"
   viewBox="0 0 312.5 360.31671"
   height="3.6031673in"
   width="3.125in"
   inkscape:version="1.0.2 (e86c870879, 2021-01-15)"
   sodipodi:docname="arcgaz_gen_hex.svg"
   inkscape:export-filename="/home/khench/Schreibtisch/PhD/data/images/hypoSymb2/logos/hypogen.png"
   inkscape:export-xdpi="9.21"
   inkscape:export-ydpi="9.21">
  <sodipodi:namedview
     pagecolor="#ffffff"
     bordercolor="#666666"
     borderopacity="1"
     objecttolerance="10"
     gridtolerance="10"
     guidetolerance="10"
     inkscape:pageopacity="0"
     inkscape:pageshadow="2"
     inkscape:window-width="1920"
     inkscape:window-height="1170"
     id="namedview9"
     showgrid="false"
     inkscape:zoom="1.4692478"
     inkscape:cx="402.5128"
     inkscape:cy="47.475778"
     inkscape:window-x="0"
     inkscape:window-y="0"
     inkscape:window-maximized="1"
     inkscape:current-layer="g1020"
     inkscape:document-rotation="0"
     fit-margin-top="0"
     fit-margin-left="0"
     fit-margin-right="0"
     fit-margin-bottom="0" />
  <metadata
     id="metadata9">
    <rdf:RDF>
      <cc:Work
         rdf:about="">
        <dc:format>image/svg+xml</dc:format>
        <dc:type
           rdf:resource="http://purl.org/dc/dcmitype/StillImage" />
        <dc:title></dc:title>
      </cc:Work>
    </rdf:RDF>
  </metadata>
  <defs
     id="defs7">
    <style
       id="style4286"
       type="text/css"><![CDATA[
    line, polyline, polygon, path, rect, circle {
      fill: none;
      stroke: #000000;
      stroke-linecap: round;
      stroke-linejoin: round;
      stroke-miterlimit: 10.00;
    }
  ]]></style>
  </defs>
  <g
     id="g1020">
    <polygon
       id="polygon4295"
       clip-path="url(#cpMC4wMHw0NjguNzV8NjIyLjAxfDgwLjc0)"
       style="fill:#cccccc;fill-opacity:1;stroke:none;stroke-width:4.30751;stroke-linecap:square;stroke-linejoin:miter;stroke-miterlimit:10;stroke-dasharray:none;stroke-opacity:1"
       points="447.44,228.36 447.44,474.39 234.38,597.4 21.31,474.39 21.31,228.36 234.38,105.35 "
       transform="matrix(0.72600552,0,0,0.72494854,-13.90754,-74.570435)" />
    <polygon
       id="polygon1011"
       clip-path="url(#cpMC4wMHw0NjguNzV8NjIyLjAxfDgwLjc0)"
       style="fill:#ffffff;fill-opacity:1;stroke:none;stroke-width:4.59706;stroke-linecap:square;stroke-linejoin:miter;stroke-miterlimit:10;stroke-dasharray:none;stroke-opacity:1"
       points="21.31,228.36 234.38,105.35 447.44,228.36 447.44,474.39 234.38,597.4 21.31,474.39 "
       transform="matrix(0.68023368,0,0,0.67933209,-3.1797647,-58.541956)" />
    <path
       style="fill:#cccccc;stroke:none;stroke-width:3.125;stroke-linecap:square;stroke-linejoin:miter;stroke-miterlimit:10;stroke-dasharray:none"
       clip-path="url(#cpMC4wMHw0NjguNzV8NjIyLjAxfDgwLjc0)"
       d="M 156.25363,358.51382 310.93637,269.33791"
       id="polygon4315"
       inkscape:connector-curvature="0"
       sodipodi:nodetypes="cc" />
    <path
       id="path1248"
       style="fill:#cccccc;stroke:none;stroke-width:0.296875;stroke-miterlimit:10;stroke-dasharray:none;fill-opacity:1"
       d="m 101.29453,62.593583 c 3.55056,-1.730312 7.3082,-3.0759 11.11178,-3.560225 3.80357,-0.484316 7.65308,-0.107368 11.38738,1.607431 2.95956,0.777193 5.86631,1.885511 8.69907,3.175436 2.83276,1.289926 5.59156,2.761459 8.25519,4.265101 2.63271,2.69348 5.36478,5.317622 7.9011,8.098447 2.53632,2.780834 4.87688,5.718352 6.72654,9.038604 2.84558,3.606533 5.58933,7.289287 8.21226,11.056149 2.62294,3.766864 5.12506,7.617854 7.48735,11.560844 1.18552,4.91565 2.75985,9.83868 4.96758,14.41977 2.20773,4.58108 5.04883,8.82021 8.76792,12.36806 4.24781,4.77685 7.17307,10.37553 9.36058,16.30646 2.1875,5.93094 3.63725,12.19411 4.93404,18.29993 0.28448,2.74234 0.31904,5.49814 0.26024,8.24969 -0.0587,2.75155 -0.21099,5.49884 -0.29998,8.22418 1.63645,2.98959 3.62632,5.89547 6.04285,8.33646 2.4165,2.44097 5.25965,4.41706 8.60267,5.54707 4.02147,2.9808 8.46497,5.52003 13.17341,7.32048 4.70844,1.80044 9.68182,2.86212 14.76306,2.88778 4.18224,0.88199 7.11481,3.65694 9.59955,6.99405 2.48472,3.33712 4.52166,7.23638 6.91263,10.36697 1.61615,3.2964 3.00566,6.74293 4.63238,10.04034 1.62668,3.29743 3.49058,6.44574 6.05551,9.14569 -0.86336,3.63453 -2.27385,7.12506 -2.18349,10.09599 0.0903,2.97093 1.68155,5.42222 6.82161,6.97829 3.32732,1.38929 5.17707,3.57315 5.11863,5.23012 -0.0584,1.65698 -2.02508,2.78703 -6.33068,2.06866 -4.31158,2.49934 -8.43782,2.1954 -12.54201,1.15095 -4.10419,-1.04446 -8.18636,-2.8294 -12.40984,-3.29207 3.21427,1.52751 4.95013,4.35226 4.77038,6.7422 -0.17975,2.38995 -2.27507,4.34505 -6.72319,4.13324 -4.17822,0.80622 -8.03048,-0.41449 -11.88277,-1.69925 -3.8523,-1.28477 -7.70463,-2.6336 -11.88299,-2.08365 -4.06953,-0.66835 -8.20459,-0.75326 -12.30832,-1.00215 -4.10374,-0.24887 -8.17613,-0.66167 -12.12031,-1.98578 -2.78454,-0.42064 -5.35242,-1.7752 -7.8765,-2.99683 -2.52407,-1.22166 -5.00436,-2.31038 -7.6137,-2.19936 -3.10018,-0.35156 -5.94232,-0.66552 -8.55028,-1.34847 -2.60795,-0.68295 -4.98172,-1.73491 -7.14514,-3.5625 -2.65243,-3.06249 -5.60758,-3.36395 -8.62329,-2.63987 -3.01571,0.72411 -6.09198,2.47377 -8.98662,3.51357 -2.4317,-1.25781 -4.476,-0.16655 -6.56541,1.06751 -2.08941,1.23406 -4.22391,2.61091 -6.83601,1.92421 -2.39472,-1.11913 -4.87819,-1.15954 -7.39763,-0.98966 -2.51944,0.16985 -5.07483,0.54999 -7.61336,0.272 -3.2363,0.7795 -6.28483,0.80053 -9.35637,0.53525 -3.07153,-0.2653 -6.16605,-0.81691 -9.49437,-1.18264 -4.597231,-1.11457 -9.238023,-1.05669 -13.801083,-0.28409 -4.56305,0.7726 -9.048359,2.25993 -13.334586,4.00432 -2.219243,0.58012 -4.825284,1.43358 -7.344485,1.82397 -2.5192,0.39038 -4.95157,0.31769 -6.823472,-0.95447 -1.206701,-2.11678 -1.731891,-4.46946 -1.219197,-6.48389 0.512685,-2.01443 2.063245,-3.69062 5.008033,-4.45434 2.450595,-1.07616 4.895717,-2.09849 7.281674,-3.22548 2.385948,-1.12699 4.712739,-2.35863 6.926662,-3.85342 3.340351,-1.76054 6.888062,-3.35738 10.182077,-5.29265 3.294014,-1.93529 6.334322,-4.20902 8.659838,-7.32333 -2.93197,-2.90509 -3.444045,-6.87129 -3.350867,-11.01035 0.09317,-4.13907 0.791582,-8.45098 0.2806,-12.04745 -2.152606,-6.70591 -2.710753,-13.64212 -2.664625,-20.63101 0.04606,-6.98886 0.696529,-14.03039 0.961065,-20.94686 0.616322,-2.14218 0.928195,-4.4439 1.320607,-6.69053 0.392432,-2.24662 0.865394,-4.43817 1.803895,-6.35998 0.36255,0.0348 0.576466,-1.54329 0.931383,-3.22393 0.354917,-1.68064 0.850833,-3.46382 1.777363,-3.83926 1.13327,-0.97111 1.78844,-2.29016 2.245176,-3.79132 0.456742,-1.50117 0.715062,-3.18444 1.054622,-4.88398 1.17108,-4.07299 1.40374,-8.42436 0.54488,-12.5064 -0.85886,-4.08204 -2.80924,-7.89476 -6.004223,-10.89042 -2.814904,-1.4045 -4.340235,-6.00722 -5.800481,-9.28751 -1.460256,-3.28029 -2.855398,-5.23815 -5.409915,-1.35291 -3.626253,3.63806 -5.925389,8.10771 -7.619861,12.84921 -1.694462,4.74151 -2.784269,9.75489 -3.991904,14.48043 -0.401329,2.428 -1.70749,6.02313 -2.657621,7.66416 -0.95014,1.64104 -1.544231,1.328 -0.521402,-4.06031 1.772195,-5.88376 3.063262,-12.1166 4.971232,-18.06799 1.907979,-5.95141 4.432861,-11.62137 8.672724,-16.37939 2.163332,-2.20593 0.656482,-4.2239 -1.326175,-4.74471 -1.982657,-0.52081 -4.44115,0.45555 -4.181077,4.23825 -1.425549,4.44439 -3.865265,8.6067 -5.937332,12.89167 -2.072077,4.28497 -3.776531,8.69259 -3.731593,13.62756 -0.489407,2.47746 -0.872237,5.09035 -1.365412,7.6373 -0.493186,2.54694 -1.096727,5.02791 -2.027538,7.24154 -0.429995,-3.89354 -0.132359,-7.80973 0.438302,-11.71079 0.570651,-3.9011 1.414318,-7.78707 2.076359,-11.6202 1.404021,-3.54588 3.080773,-6.95739 4.71842,-10.37958 1.637647,-3.42218 3.236191,-6.85504 4.483824,-10.44367 2.11433,-1.43367 1.927127,-3.6584 0.895933,-5.939537 -1.031195,-2.281121 -2.90637,-4.618647 -4.167993,-6.277917 -2.062845,-2.932521 -2.229321,-6.761566 -0.981002,-10.004665 1.248327,-3.2431 3.91144,-5.900265 7.507753,-6.489007 1.88098,-2.002528 4.559072,-3.971282 7.457219,-5.896134 2.898147,-1.924834 6.016359,-3.805748 8.777608,-5.632616 0.98578,-0.637621 1.998084,-0.599344 2.940687,-0.6654 0.942612,-0.06605 1.815508,-0.236433 2.522458,-1.291391 z m 18.66026,-0.652524 c -3.19714,-1.398168 -5.61665,-1.0736 -7.82929,-0.189078 -2.21263,0.884513 -4.21836,2.32898 -6.58793,3.170573 -1.73234,1.215571 -3.98624,1.470762 -6.222636,1.860776 -2.236392,0.390005 -4.455273,0.914824 -6.117541,2.669651 -1.094889,1.352374 -2.498796,2.724238 -4.021367,3.832651 -1.522572,1.108413 -3.163769,1.953355 -4.733219,2.251895 -1.601751,1.758072 -3.988935,2.498873 -5.896277,3.540326 -1.907342,1.041472 -3.33486,2.383597 -3.017249,5.344345 0.139563,2.4172 0.869781,4.850884 2.02848,6.816487 1.158681,1.965603 2.745842,3.463136 4.599281,4.008044 0.557937,0.16405 1.489044,0.04454 2.265342,-0.07585 0.776288,-0.120425 1.397769,-0.241791 1.336433,-0.08156 0.181855,0.259587 -0.544071,0.421876 -1.371483,0.592321 -0.827432,0.170454 -1.75635,0.349063 -1.980488,0.641303 -1.105453,1.441336 1.431963,3.823467 4.463839,6.311117 3.031876,2.48762 6.558212,5.08076 7.430582,6.94411 2.850382,2.38408 4.13613,5.93144 5.63273,9.2931 1.496613,3.36166 3.204063,6.5376 6.897853,8.17882 2.26234,2.49953 2.52401,4.39655 2.23192,6.42383 -0.29209,2.02726 -1.13792,4.18476 -1.09061,7.20526 -0.15373,1.95635 -0.27054,3.89717 -0.53623,5.8195 -0.2657,1.92232 -0.68029,3.82613 -1.4296,5.70846 -1.25308,3.55568 -1.65596,7.21162 -1.6212,10.88721 0.0348,3.67559 0.50717,7.37079 1.00465,11.005 0.11724,2.22927 0.40615,4.44234 0.71444,6.65957 0.30831,2.21724 0.63598,4.43866 0.83078,6.68461 -2.51634,-2.41927 -3.86588,-5.54678 -4.96934,-8.81674 -1.10346,-3.26995 -1.96083,-6.68237 -3.492862,-9.67149 -0.996934,5.03895 -1.153798,10.16588 -1.211402,15.29892 -0.05767,5.13304 -0.01599,10.27218 -0.615904,15.33553 0.16994,3.33925 0.862501,6.61245 1.506888,9.88122 0.644396,3.26878 1.240619,6.53313 1.217893,9.8547 -0.810577,2.6516 -1.886158,6.46533 -1.806541,9.66625 0.07965,3.20094 1.31445,5.78903 5.124678,5.98935 3.62354,2.10781 6.7454,4.8188 9.5904,7.8162 2.84503,2.99739 5.41322,6.28118 7.92942,9.53463 1.49073,1.6167 3.15565,3.19031 5.00905,4.3772 1.85338,1.18688 3.89527,1.98706 6.13995,2.0569 2.04608,0.62029 4.21639,1.52358 6.27007,1.67138 2.05368,0.14782 3.99073,-0.45985 5.57027,-2.86141 3.68226,-4.84485 5.77418,-10.57002 8.0256,-16.19871 2.25142,-5.62869 4.66231,-11.1609 8.98252,-15.61978 -0.12956,-1.68786 2.47847,-4.79591 4.80458,-6.61176 2.32611,-1.81585 4.37029,-2.3395 3.11301,1.14142 -2.35312,1.62944 -3.26592,4.06172 -4.10564,6.62917 -0.83973,2.56744 -1.60638,5.27012 -3.6672,7.4404 -1.64278,4.00195 -3.11905,8.16212 -4.75315,12.21386 -1.63413,4.0517 -3.4261,7.99496 -5.7003,11.56307 3.27658,-2.14757 6.94477,-2.85846 10.47495,-2.45711 3.53018,0.40135 6.92235,1.91493 9.6469,4.2163 3.03915,3.11237 7.17948,3.49484 11.37442,3.8358 4.19496,0.34097 8.44454,0.64042 11.70225,3.58669 4.72217,2.24686 9.76405,3.02494 14.8928,3.42079 5.12875,0.39587 10.34435,0.40948 15.414,1.12742 3.76462,-0.68929 7.55277,0.80915 11.21966,1.95137 3.66691,1.14223 7.21255,1.92822 10.49221,-0.18594 -1.97368,-1.03013 -4.23174,-1.72892 -6.56327,-2.25713 -2.33156,-0.52825 -4.73654,-0.88594 -7.00408,-1.23388 -2.30037,-0.17386 -6.24643,-0.77605 -10.09927,-2.16448 -3.85282,-1.38841 -7.61245,-3.56304 -9.53994,-6.88171 -3.31454,-1.88614 -5.86807,-4.98347 -8.39891,-8.0073 -2.53086,-3.0238 -5.03905,-5.97413 -8.26297,-7.56631 -0.69419,-1.11619 -2.51204,-3.07086 -4.32281,-5.31887 -1.81078,-2.24805 -3.61448,-4.78946 -4.28043,-7.07913 0.0271,-2.39018 -0.26454,-5.04172 -0.55686,-7.61885 -0.29231,-2.57711 -0.58522,-5.07979 -0.56031,-7.17228 1.26815,-2.64878 1.91341,-5.58238 2.47854,-8.56192 0.56514,-2.97955 1.05016,-6.00504 1.99781,-8.83755 1.42337,-6.66738 2.61877,-13.6018 2.92883,-20.53621 0.31006,-6.93442 -0.26522,-13.86883 -2.3832,-20.5362 -1.24761,-5.46196 -3.15931,-10.77763 -5.78556,-15.69777 -2.62626,-4.92015 -5.96709,-9.44476 -10.07298,-13.32459 -2.70892,-3.43607 -4.55297,-7.36375 -6.03605,-11.4424 -1.48309,-4.07864 -2.60519,-8.30825 -3.87024,-12.34817 -1.68575,-2.58823 -3.16542,-5.26494 -4.71541,-7.880592 -1.54999,-2.615652 -3.17027,-5.170245 -5.13727,-7.514281 -2.56636,-3.370748 -4.94731,-6.865127 -7.43125,-10.275969 -2.48393,-3.41086 -5.07084,-6.738192 -8.04914,-9.774846 -2.25402,-2.339601 -4.9594,-3.855977 -7.81829,-5.100526 -2.85889,-1.24455 -5.87131,-2.217283 -8.73943,-3.469598 -0.23325,-0.668911 -0.81977,-0.553217 -1.42195,-0.464092 -0.60217,0.08917 -1.22001,0.151715 -1.51595,-0.623441 z M 108.0209,74.121543 c 1.9506,-0.690362 3.51413,-0.823472 4.99923,-0.643045 1.4851,0.180418 2.89182,0.674384 4.52879,1.238173 1.59225,1.23096 -0.27356,0.514665 -2.87101,0.04616 -2.59746,-0.468414 -5.92655,-0.688916 -7.26089,1.533629 -3.36148,2.141358 -3.94339,2.087018 -3.31848,1.252629 0.62491,-0.834378 2.45662,-2.448814 3.92236,-3.427648 z m -32.76393,3.697638 c 0.298082,-0.123765 0.236347,0.0256 0.13095,0.131273 -0.105379,0.105645 -0.25442,0.167533 -0.13095,-0.131273 z m 36.45258,1.087542 c 4.47515,1.916307 4.03855,4.35649 1.94892,5.631788 -2.08963,1.275298 -5.83232,1.38573 -7.96934,-1.357465 -5.11039,-1.291001 -3.94522,-1.99717 -1.33248,-2.561779 2.61272,-0.564627 6.67303,-0.987702 7.3529,-1.712544 z m 21.04704,7.830313 c 4.21384,-1.549751 7.75573,3.734696 9.1281,8.194261 1.37234,4.459575 0.57515,8.094263 -3.88915,3.244984 -2.66007,-0.01142 -5.30466,-1.759461 -6.2325,-3.054858 -0.92782,-1.295388 -0.13888,-2.138094 4.06814,-0.338739 4.9062,2.760792 4.25795,1.447228 2.3777,-0.744636 -1.88024,-2.191873 -4.99247,-5.262044 -5.01427,-6.014446 l -0.219,-0.643283 z m -42.528024,6.090247 c 3.893577,-0.713735 7.436768,0.559222 10.766074,2.500538 3.3293,1.941336 6.44471,4.55104 9.48275,6.510839 3.87661,3.0188 7.31623,6.52872 10.30154,10.39945 2.98531,3.87072 5.51628,8.10221 7.57565,12.56416 1.02976,2.70786 2.17586,5.39407 3.08469,8.13606 0.90885,2.74201 1.58045,5.5398 1.66123,8.47081 0.38708,1.20112 0.94143,3.93041 1.11565,5.6163 0.17422,1.6859 -0.0317,2.32841 -1.16518,-0.64408 -0.99938,-2.7086 -1.66779,-5.51521 -2.42543,-8.2859 -0.75765,-2.77071 -1.60453,-5.50551 -2.96089,-8.07048 -1.96461,-5.27315 -4.70386,-10.22229 -8.11767,-14.63941 -3.41381,-4.41713 -7.50215,-8.30225 -12.16498,-11.44735 -1.94753,-1.05187 -3.79,-2.29441 -5.63874,-3.50789 -1.848738,-1.21349 -3.703738,-2.397941 -5.676317,-3.333664 -3.238846,-1.625818 -4.5794,-1.478946 -4.400067,-0.695396 0.179352,0.78355 1.878592,2.203778 4.719343,3.124664 2.467811,2.488046 5.139941,4.626036 7.745371,6.835026 2.60542,2.20898 5.14413,4.48899 7.34513,7.26106 4.28416,5.06242 7.62775,10.87703 10.11756,17.05494 2.48983,6.17792 4.1259,12.71915 4.99503,19.2348 -0.75513,3.2924 -1.66748,1.55862 -2.55442,-1.40168 -0.88695,-2.9603 -1.74849,-7.14714 -2.40199,-8.76091 -1.77984,-5.85361 -4.01044,-11.82431 -7.04563,-17.27007 -3.0352,-5.44575 -6.87497,-10.36656 -11.87315,-14.12035 -1.95109,-2.0602 -3.940374,-4.07858 -6.039915,-5.97672 -2.099523,-1.89812 -4.309325,-3.676 -6.70142,-5.255196 -2.946959,-1.252601 -2.410482,-1.279894 -1.490767,-1.329458 0.919725,-0.04958 2.222698,-0.121395 0.808732,-1.463015 0.426549,0.0057 0.576808,-0.249719 0.662506,-0.567796 0.08575,-0.318078 0.106892,-0.698062 0.27531,-0.939282 z m 81.150404,55.029667 c 1.09112,2.6812 0.18838,5.73907 -0.35833,7.56995 -0.5467,1.83089 -0.73737,2.4348 1.7779,0.20811 -1.07134,2.59097 -2.874,4.91609 -4.68414,7.29142 -1.81014,2.37533 -3.62777,4.80087 -4.72902,7.59268 -1.15636,2.79799 -2.84167,5.1935 -4.56674,7.55833 -1.72508,2.36483 -3.48993,4.69898 -4.80539,7.37429 -1.95135,3.3398 -3.51359,4.61911 -4.04035,4.32215 -0.52676,-0.29697 -0.0181,-2.17023 2.17264,-5.13555 1.89275,-3.79365 4.28556,-7.28005 6.62641,-10.7965 2.34085,-3.51645 4.62974,-7.06294 6.31462,-10.97678 1.90347,-1.98545 3.18151,-4.47492 4.13121,-7.09932 0.94969,-2.62439 1.57105,-5.3837 2.16119,-7.90878 z m -75.942891,11.52796 c 0.298083,-0.12377 0.236338,0.0256 0.13096,0.13128 -0.105389,0.10565 -0.25442,0.16754 -0.13096,-0.13128 z m 102.848381,30.66872 c -1.00201,5.41488 -2.23786,10.84321 -3.47321,16.28195 -1.23534,5.43874 -2.47018,10.88788 -3.47015,16.34435 -1.19106,2.80436 -1.56977,5.87499 -1.06701,8.76381 0.50278,2.88881 1.88704,5.59577 4.22194,7.6728 2.52984,3.01062 5.49159,5.57682 8.4259,8.17597 2.9343,2.59916 5.84116,5.23135 8.26117,8.37394 2.78433,2.24426 5.33764,4.98402 8.17363,7.17955 2.83599,2.19556 5.95465,3.84688 9.86975,3.91427 2.81911,0.23044 5.59092,0.90864 8.35867,1.39078 2.76774,0.48212 5.53144,0.76819 8.33427,0.21439 0.37093,0.15984 -3.0803,-1.42251 -5.30454,-2.86016 -2.22423,-1.43764 -3.22148,-2.73059 2.05739,-1.99191 2.7328,1.05587 5.6476,1.53904 8.5414,2.12971 2.89381,0.59066 5.76658,1.28878 8.41529,2.77456 1.00473,-0.15611 4.35505,-0.35342 7.06131,-0.83004 2.70627,-0.47665 4.7685,-1.23262 3.19705,-2.50611 -1.3384,-1.81256 -4.36108,-1.60828 -6.87637,-1.57201 -2.51529,0.0363 -4.52321,-0.0955 -3.83223,-2.58011 3.64676,-3.21526 -0.67626,-2.65312 -4.55901,-2.20172 -3.88277,0.4514 -7.32531,0.79203 -1.91757,-2.86623 3.65487,-0.363 7.03681,-2.3571 8.78497,-5.13743 1.74816,-2.78033 1.86255,-6.34692 -1.0177,-9.85491 -2.35258,-4.27926 -4.17565,-8.95853 -6.4137,-13.34482 -2.23806,-4.3863 -4.89111,-8.47967 -8.90364,-11.5871 -3.92846,-0.55465 -7.86774,-1.17186 -11.70086,-2.16003 -3.8331,-0.98816 -7.56001,-2.34724 -11.06371,-4.38561 -3.76384,-1.5833 -6.97694,-3.94197 -10.06087,-6.47368 -3.08396,-2.53169 -6.03879,-5.23644 -9.28611,-7.51189 -0.65468,-1.03509 -1.45237,-1.91115 -2.28206,-2.75946 -0.82968,-0.8483 -1.69136,-1.66884 -2.474,-2.59286 z M 92.615341,213.76207 c 0.298083,-0.12378 0.236348,0.0256 0.130969,0.13127 -0.105397,0.10564 -0.254439,0.16752 -0.130969,-0.13127 z m 8.679189,25.88353 c -1.11631,4.56889 -4.41346,8.11801 -8.486095,10.96855 -4.072615,2.85053 -8.920729,5.00248 -13.138932,6.77699 -2.350573,1.65349 -5.232228,3.06548 -8.032705,4.32888 -2.800467,1.2634 -5.519766,2.37816 -7.545611,3.43716 5.418195,-0.88491 10.741679,-2.95419 16.13061,-4.46864 5.388921,-1.51448 10.843298,-2.47411 16.523288,-1.13968 3.700235,0.59272 7.416685,1.03886 11.140575,1.1981 3.72386,0.15923 7.45515,0.0316 11.18507,-0.52323 1.58498,-0.36872 -0.46935,-2.24252 -3.0551,-4.58341 -2.58575,-2.34089 -5.70294,-5.14882 -6.2437,-7.38573 -1.18142,-1.63331 -2.60316,-3.06325 -4.07835,-4.44602 -1.4752,-1.38277 -3.00385,-2.71837 -4.39905,-4.16297 z m 56.41472,6.09025 c 1.39478,-4.51621 3.72097,-4.10135 4.67098,-2.73768 0.95001,1.36367 0.52385,3.67616 -3.58607,2.95518 0.88021,1.53396 2.21079,3.68453 2.92725,4.95041 0.71647,1.2659 0.81881,1.64715 -0.75746,-0.35753 -0.26647,-0.48099 -0.93386,-1.60004 -1.17836,-1.75765 -0.24451,-0.15761 -0.0661,0.64624 1.359,4.01112 -0.60573,1.38918 -0.99784,-0.20177 -1.47188,-2.22751 -0.47404,-2.02575 -1.03,-4.48631 -1.96346,-4.83634 z m -54.4619,-3.48013 c 0.29808,-0.1238 0.23634,0.0256 0.13096,0.13126 -0.10539,0.10564 -0.25443,0.16754 -0.13096,-0.13126 z m 100.89556,6.09023 c -0.29808,-0.12379 -0.23635,0.0256 -0.13097,0.13127 0.10539,0.10563 0.25443,0.16752 0.13097,-0.13127 z M 71.351325,263.13653 c 0.298092,-0.12378 0.236348,0.0256 0.13096,0.13127 -0.105379,0.10564 -0.25442,0.16752 -0.13096,-0.13127 z m 71.603305,1.08754 c 0.29809,-0.12378 0.23635,0.0256 0.13096,0.13127 -0.10538,0.10564 -0.25443,0.16752 -0.13096,-0.13127 z m -49.688345,0.21752 c 0.298073,-0.12379 0.236338,0.0256 0.13096,0.13125 -0.105389,0.10565 -0.25443,0.16753 -0.13096,-0.13125 z m 49.254385,0 c 0.29809,-0.12379 0.23636,0.0256 0.13097,0.13125 -0.10539,0.10565 -0.25444,0.16753 -0.13097,-0.13125 z m -84.622081,0.87003 c 0.298082,-0.12379 0.236347,0.0256 0.130959,0.13126 -0.105388,0.10564 -0.254429,0.16752 -0.130959,-0.13126 z m 22.131931,1.52255 c 0.298083,-0.12379 0.236348,0.0256 0.13096,0.13127 -0.105388,0.10565 -0.25443,0.16753 -0.13096,-0.13127 z m 139.73494,0.87004 c 0.29808,-0.12378 0.23635,0.0256 0.13094,0.13127 -0.10539,0.10564 -0.25441,0.16754 -0.13094,-0.13127 z m -159.697077,2.6101 c 0.298082,-0.12378 0.236347,0.0256 0.130959,0.13127 -0.105378,0.10565 -0.254429,0.16753 -0.130959,-0.13127 z" />
    <path
       style="fill:#080808;stroke:none;stroke-width:3.125;stroke-linecap:round;stroke-linejoin:round;stroke-miterlimit:10;stroke-dasharray:none"
       d="m 225.66807,88.907585 c -3.17164,0.663959 -5.68687,2.873949 -8.33253,4.589379 -7.96318,5.851064 -13.99693,14.087916 -17.79295,23.166416 -4.71003,10.75605 -7.34515,22.25739 -9.85642,33.68196 -0.0572,0.54791 -0.27671,1.16677 -0.049,1.68684 0.97754,0.59486 2.11772,0.97119 3.25474,1.06625 0.81482,-0.0353 1.28426,-0.81506 1.38103,-1.54752 0.53908,-1.74511 0.58246,-3.62531 1.26777,-5.32239 0.33512,-0.42507 0.87096,0.17891 1.11886,0.46135 1.44157,1.93245 3.21268,3.59372 4.76181,5.44052 1.31574,1.55285 2.64305,3.17881 3.50744,5.01435 -0.10398,0.75103 -1.03742,0.65798 -1.57655,0.51478 -3.74893,-0.51745 -7.41753,-1.5668 -11.11677,-2.4197 -10.14525,-2.52917 -20.37147,-4.84993 -30.76523,-6.08969 -6.84053,-0.75687 -13.8176,-1.00203 -20.62157,0.20427 -11.73206,2.15777 -22.77084,8.7203 -29.64554,18.55494 -6.55077,9.1311 -10.26578,19.8956 -13.291819,30.61564 -0.840802,3.0366 -1.716855,6.10918 -1.941611,9.2612 0.122061,1.1445 1.618147,2.09795 2.596962,1.28417 1.647338,-1.38988 2.025118,-3.6375 2.859868,-5.51109 1.64748,-4.3947 2.97354,-8.92092 5.00293,-13.16035 0.35951,-0.62742 1.28436,-1.05543 1.85519,-0.45489 1.1097,0.89986 1.79039,2.2002 2.77868,3.21871 6.15853,7.55912 12.30716,15.12782 18.27967,22.83535 -0.15793,0.72564 -1.0782,0.5207 -1.60687,0.47484 -5.49042,-0.008 -10.96716,-0.52507 -16.36555,-1.49228 -8.99907,-0.85807 -17.531427,-4.06738 -26.175649,-6.53886 -4.178098,-1.17896 -8.464973,-1.92341 -12.779666,-2.37439 -7.931133,-0.95799 -15.951714,-1.48236 -23.933761,-0.9564 -9.214388,1.1239 -17.885399,5.21058 -25.2258,10.79393 -1.25597,1.02925 -2.634382,2.12393 -3.261372,3.65666 0.0178,0.82778 1.036286,0.79023 1.623563,0.85779 2.244681,0.46641 3.588823,2.55287 5.473563,3.67997 1.231397,0.47466 2.339838,-0.5446 3.339665,-1.10411 2.811088,-1.73073 5.481186,-3.95046 8.767149,-4.6668 1.220292,0.15873 1.730198,1.46536 2.573684,2.19055 7.696327,8.52064 14.834118,17.52211 22.136005,26.38055 3.770184,4.67782 7.561237,9.35597 10.999582,14.28259 0.525152,1.33586 -0.487485,2.63433 -1.154207,3.70763 -2.034448,2.90843 -5.172901,5.15322 -6.187632,8.69379 -0.653304,2.25035 -0.87925,4.65756 -0.547678,6.97535 0.427273,0.64222 1.201592,0.13256 1.605462,-0.25385 3.676501,-2.93804 6.849929,-6.44325 9.983291,-9.93785 3.543752,-4.06455 6.592216,-8.58875 8.731376,-13.55054 3.725179,-8.03743 6.280219,-16.55844 8.269805,-25.17433 0.726973,-3.15834 1.475787,-6.32041 1.987901,-9.52043 0.125335,-1.31592 -0.342955,-2.97428 -1.75576,-3.38455 -1.090455,-0.32097 -2.22639,0.48463 -2.484246,1.54887 -1.184299,2.61382 -1.448454,5.51245 -2.19212,8.2545 -0.461513,1.99074 -0.899911,4.06627 -1.95404,5.83037 -0.861692,0.33942 -1.449245,-0.63034 -1.988805,-1.12349 -3.652804,-3.63899 -6.759748,-7.77159 -9.961964,-11.79903 -1.790743,-2.37199 -3.615528,-4.75815 -4.961602,-7.41105 -0.166457,-0.58884 0.395696,-1.03835 0.950103,-0.92185 1.739847,0.0571 3.478867,0.31418 5.212328,0.52068 9.018886,1.2662 17.781771,3.85031 26.634645,5.95123 6.38514,1.68819 12.87793,3.22413 19.51079,3.39095 7.53893,0.39548 15.09641,0.30391 22.63856,0.09 3.54802,-0.26957 6.96891,-1.44041 10.09814,-3.09974 6.78308,-3.25156 12.74923,-8.13769 17.34039,-14.08958 7.26691,-9.20215 11.65629,-20.3092 14.59092,-31.56784 0.74853,-2.86782 1.55685,-5.73459 2.08896,-8.64787 0.0968,-1.19986 0.0917,-2.59989 -0.89894,-3.45965 -0.73215,-0.79306 -1.82856,-1.63793 -2.96072,-1.29763 -1.01999,0.53587 -0.85666,1.8774 -1.07081,2.83783 -0.40219,2.70783 -0.50298,5.59985 -1.97178,7.9852 -0.69562,0.55553 -1.50023,-0.19584 -1.97513,-0.68025 -3.2343,-3.14303 -6.12968,-6.63698 -8.7788,-10.28528 -0.56237,-0.85344 -1.18712,-1.71725 -1.49712,-2.68491 0.12542,-0.87671 1.22617,-0.85631 1.88954,-0.70419 5.34852,0.50632 10.43755,2.37862 15.65972,3.55526 3.03879,0.70359 6.03569,1.56871 9.04759,2.37179 13.45931,3.32315 27.47683,5.29306 41.32402,3.59777 6.65524,-0.83795 13.27282,-2.92096 18.75584,-6.87344 5.85879,-3.98902 11.12894,-8.95937 15.03689,-14.8965 1.25142,-2.03867 2.46833,-4.16395 3.12341,-6.47145 -0.17633,-0.81396 -1.13517,-0.61956 -1.74149,-0.68025 -2.23938,-0.25736 -3.95185,-1.97705 -5.41128,-3.54723 -0.78155,-0.39441 -1.41258,0.47203 -1.75636,1.05824 -2.08429,2.79898 -3.52862,6.20464 -6.39073,8.31915 -0.99233,0.0824 -1.48371,-1.00684 -2.1814,-1.52023 -7.59694,-7.39097 -14.6798,-15.28731 -21.92438,-23.0224 -5.59499,-6.05414 -11.19358,-12.10999 -16.72849,-18.21584 0.0448,-0.88077 1.1549,-0.95656 1.72782,-1.372746 1.97753,-1.078277 4.22102,-1.818573 5.87901,-3.38475 0.25903,-0.990176 -0.89102,-1.439265 -1.27918,-2.189398 -0.96688,-1.27545 -1.5423,-3.02544 -0.92841,-4.558597 0.0104,-0.342039 -0.29796,-0.655653 -0.64291,-0.636461 z m -11.8163,19.308695 c 1.47099,0.48635 2.23351,1.9689 3.4089,2.877 12.42023,12.42553 24.10392,25.5535 36.11786,38.36635 0.42073,0.48947 0.92026,0.97427 1.20886,1.53924 -0.29708,0.87671 -1.39437,0.95129 -2.02963,1.49836 -2.65945,1.59761 -5.25779,3.46207 -8.30434,4.2123 -1.44393,-0.3605 -2.24441,-1.75066 -3.38672,-2.58788 -8.05187,-7.59588 -15.56273,-15.73243 -23.14665,-23.79182 -3.60472,-3.92208 -7.22917,-7.85617 -10.45531,-12.09308 -0.65283,-1.34916 0.37867,-2.66282 0.93579,-3.8354 1.24486,-2.20727 2.73007,-4.36736 4.79838,-5.87216 0.25579,-0.15582 0.54645,-0.32079 0.85286,-0.31291 z m -11.25374,17.29728 c 1.87159,0.87443 3.01258,2.69421 4.56571,3.98245 8.66949,8.66753 17.02922,17.64439 25.04894,26.9135 0.62374,0.79471 1.39097,1.59706 1.72402,2.53897 -0.24861,0.88601 -1.37548,0.75273 -2.08223,0.92287 -3.41642,0.48758 -6.91101,0.42518 -10.35708,0.2898 -2.04191,-0.13693 -4.06467,-0.77989 -5.64857,-2.10478 -2.94689,-2.26875 -5.20725,-5.24378 -7.6687,-8.00115 -2.88098,-3.41953 -5.95384,-6.69918 -8.5218,-10.36462 -0.90768,-1.31451 -1.53746,-2.99156 -1.05734,-4.59782 0.45636,-1.90064 1.17296,-3.72733 1.68487,-5.6129 0.43231,-1.24912 0.75833,-2.61638 1.60236,-3.66003 0.18822,-0.15641 0.45278,-0.36199 0.70982,-0.30629 z m -56.01037,30.40426 c 4.47714,0.18298 9.00878,-0.0923 13.46797,0.24703 1.03119,0.74719 1.59079,1.94771 2.46633,2.85136 6.14922,7.71632 12.41611,15.33739 18.49858,23.10672 -0.026,1.27636 -1.00193,2.2439 -1.3477,3.42954 -1.11686,2.39895 -2.02741,5.04362 -3.91231,6.95306 -1.03266,0.1263 -1.61126,-0.98 -2.2962,-1.55974 -4.02176,-4.15467 -7.48449,-8.80278 -11.15189,-13.2604 -5.55065,-7.01293 -11.04222,-14.09567 -16.33997,-21.29058 0.0392,-0.28129 0.34025,-0.4886 0.61519,-0.47699 z m -9.22698,2.72198 c 1.43045,0.37461 2.1104,1.83718 3.12052,2.77801 7.22734,8.44282 13.52994,17.62121 20.37651,26.36764 3.10973,4.09935 6.30639,8.14613 9.29404,12.32968 -0.19497,1.03263 -1.32274,1.4486 -1.86136,2.27645 -1.74414,1.8479 -3.56855,3.90511 -6.04062,4.70833 -1.22642,-0.1675 -1.78058,-1.43961 -2.62921,-2.18177 -6.0598,-6.82944 -11.46436,-14.19909 -17.01968,-21.43437 -5.12289,-6.79368 -10.23024,-13.60701 -15.28487,-20.4464 0.0321,-0.85588 1.12673,-0.90858 1.69425,-1.2912 2.63702,-1.33235 5.32352,-3.05105 8.35042,-3.10637 z m -17.40116,11.441 c 1.59447,0.70226 2.32636,2.424 3.5378,3.57489 9.01273,10.87722 17.54857,22.14206 25.88252,33.54257 1.09678,1.56409 2.25565,3.14104 3.08763,4.84531 0.0908,1.10991 -1.10542,1.72631 -1.97888,2.03915 -2.22774,0.79952 -4.63133,0.90455 -6.875,1.65489 -1.31854,0.36899 -2.93086,0.43799 -4.0202,-0.57179 -2.00361,-1.52792 -3.46977,-3.63936 -5.1171,-5.53292 -4.51171,-5.65187 -8.75932,-11.50655 -13.17517,-17.23403 -2.66293,-3.56083 -5.38072,-7.1066 -7.55796,-10.99214 -0.74045,-1.49271 -0.94552,-3.43522 0.11203,-4.8271 1.14685,-1.80778 2.51246,-3.491 3.93802,-5.09266 0.61187,-0.60942 1.32155,-1.17306 2.16631,-1.40617 z m -60.930668,42.14071 c 1.242874,0.27032 1.904239,1.51076 2.765008,2.32759 8.089444,9.1233 15.449659,18.89565 22.801528,28.58488 0.648565,0.84326 0.957002,1.95064 0.64453,2.98378 -0.448637,2.05888 -1.619956,3.86024 -2.636742,5.67311 -0.321341,0.48242 -0.885331,1.28709 -1.524103,0.74129 -0.861863,-0.6514 -1.461093,-1.58473 -2.260174,-2.30902 -6.9659,-7.56006 -13.398568,-15.58408 -19.960996,-23.4913 -3.045095,-3.76679 -6.115733,-7.53174 -8.793034,-11.56842 -0.229763,-0.82613 0.690828,-1.27283 1.331189,-1.43869 2.437595,-0.8825 5.040295,-1.49295 7.632794,-1.50322 z"
       id="path1203"
       inkscape:connector-curvature="0" />
  </g>
</svg>
