<?xml version="1.0" encoding="UTF-8" standalone="no"?>
<svg
   version="1.1"
   id="svg2"
   viewBox="0 0 271.89429 90.943247"
   height="0.90943253in"
   width="2.7189429in"
   inkscape:version="1.2.2 (b0a8486541, 2022-12-01)"
   sodipodi:docname="dna.svg"
   inkscape:export-filename="/home/khench/Schreibtisch/PhD/data/images/hypoSymb2/logos/hypogen.png"
   inkscape:export-xdpi="9.21"
   inkscape:export-ydpi="9.21"
   xmlns:inkscape="http://www.inkscape.org/namespaces/inkscape"
   xmlns:sodipodi="http://sodipodi.sourceforge.net/DTD/sodipodi-0.dtd"
   xmlns="http://www.w3.org/2000/svg"
   xmlns:svg="http://www.w3.org/2000/svg"
   xmlns:rdf="http://www.w3.org/1999/02/22-rdf-syntax-ns#"
   xmlns:cc="http://creativecommons.org/ns#"
   xmlns:dc="http://purl.org/dc/elements/1.1/">
  <sodipodi:namedview
     pagecolor="#ffffff"
     bordercolor="#666666"
     borderopacity="1"
     objecttolerance="10"
     gridtolerance="10"
     guidetolerance="10"
     inkscape:pageopacity="0"
     inkscape:pageshadow="2"
     inkscape:window-width="1920"
     inkscape:window-height="1044"
     id="namedview9"
     showgrid="false"
     inkscape:zoom="1.4692478"
     inkscape:cx="188.87216"
     inkscape:cy="143.6109"
     inkscape:window-x="0"
     inkscape:window-y="0"
     inkscape:window-maximized="1"
     inkscape:current-layer="g1020"
     inkscape:document-rotation="0"
     fit-margin-top="0"
     fit-margin-left="0"
     fit-margin-right="0"
     fit-margin-bottom="0"
     inkscape:showpageshadow="2"
     inkscape:pagecheckerboard="0"
     inkscape:deskcolor="#d1d1d1"
     inkscape:document-units="in" />
  <metadata
     id="metadata9">
    <rdf:RDF>
      <cc:Work
         rdf:about="">
        <dc:format>image/svg+xml</dc:format>
        <dc:type
           rdf:resource="http://purl.org/dc/dcmitype/StillImage" />
        <dc:title />
      </cc:Work>
    </rdf:RDF>
  </metadata>
  <defs
     id="defs7">
    <style
       id="style4286"
       type="text/css"><![CDATA[
    line, polyline, polygon, path, rect, circle {
      fill: none;
      stroke: #000000;
      stroke-linecap: round;
      stroke-linejoin: round;
      stroke-miterlimit: 10.00;
    }
  ]]></style>
  </defs>
  <g
     id="g1020"
     transform="translate(-31.269876,-118.10049)">
    <path
       style="fill:#080808;stroke:none;stroke-width:3.125;stroke-linecap:round;stroke-linejoin:round;stroke-miterlimit:10;stroke-dasharray:none;fill-opacity:1;opacity:0.5"
       d="m 280.99757,124.39206 c -3.04071,-1.11992 -6.34526,-0.5811 -9.49799,-0.53068 -9.8543,0.73475 -19.33892,4.51548 -27.37326,10.19689 -9.69914,6.61844 -18.03488,14.96948 -26.22493,23.32116 -0.33918,0.43408 -0.85359,0.84219 -0.9365,1.40385 0.51301,1.02288 1.27983,1.94679 2.19318,2.63062 0.70942,0.40239 1.52104,-0.009 1.99167,-0.57904 1.38283,-1.19322 2.41716,-2.76397 3.89845,-3.83891 0.5096,-0.18251 0.64336,0.61375 0.70364,0.98468 0.19667,2.40288 0.81656,4.75072 1.14986,7.13807 0.29141,2.01434 0.55384,4.09681 0.31269,6.1113 -0.4866,0.58145 -1.22846,0.007 -1.60949,-0.4001 -2.90325,-2.42762 -5.45619,-5.2635 -8.13935,-7.94911 -7.25776,-7.52646 -14.69473,-14.91922 -22.84725,-21.48457 -5.39682,-4.27084 -11.18086,-8.18037 -17.58826,-10.76773 -11.0895,-4.39546 -23.92831,-4.68941 -34.97347,-4.7e-4 -10.39731,4.26443 -19.25751,11.41794 -27.5101,18.89932 -2.32378,2.12788 -4.69655,4.26756 -6.55938,6.82013 -0.50376,1.03489 0.25855,2.63684 1.51998,2.46635 2.13378,-0.30413 3.64649,-2.00889 5.34811,-3.15417 3.72813,-2.85108 7.25356,-5.98419 11.22303,-8.50104 0.63762,-0.34109 1.64865,-0.21321 1.8139,0.59869 0.46321,1.35153 0.35029,2.81491 0.64764,4.20258 1.20976,9.67494 2.40604,19.35274 3.37937,29.05478 -0.51886,0.53129 -1.19019,-0.13064 -1.614,-0.45004 -4.64971,-2.91974 -9.01773,-6.26375 -13.08052,-9.94776 -7.17281,-5.50185 -12.70256,-12.7491 -18.718582,-19.43029 -2.916064,-3.21605 -6.154864,-6.1215 -9.572947,-8.79296 -6.214563,-5.01994 -12.735005,-9.71979 -19.780042,-13.50887 -8.406872,-3.93606 -17.925068,-5.07243 -27.109437,-4.2342 -1.610697,0.20609 -3.359897,0.40267 -4.704562,1.36925 -0.424095,0.7111 0.459148,1.21964 0.921109,1.58848 1.655249,1.58629 1.687631,4.06802 2.687242,6.02336 0.791962,1.05567 2.272306,0.77978 3.416661,0.83598 3.301063,0.0248 6.742066,-0.44054 9.907472,0.69564 0.950166,0.78198 0.689149,2.16007 1.019378,3.2223 2.003127,11.30584 3.277706,22.72294 4.767265,34.10585 0.713957,5.96545 1.44543,11.94225 1.746102,17.94253 -0.263601,1.41097 -1.810873,1.97436 -2.945466,2.5304 -3.267583,1.38595 -7.118879,1.62362 -9.857482,4.08643 -1.747708,1.56089 -3.216389,3.48149 -4.165047,5.62208 0.02145,0.77107 0.948201,0.74988 1.495553,0.63661 4.675179,-0.53985 9.224844,-1.82736 13.734917,-3.12714 5.16033,-1.56517 10.1447,-3.78273 14.590462,-6.85365 7.421949,-4.83653 14.108594,-10.70377 20.366271,-16.95145 2.291891,-2.29146 4.604276,-4.57451 6.736153,-7.0153 0.8044,-1.04895 1.28731,-2.70312 0.30742,-3.80045 -0.75404,-0.85062 -2.144321,-0.77042 -2.927531,-0.005 -2.390647,1.58726 -4.152441,3.90413 -6.237619,5.83388 -1.447398,1.44259 -2.920188,2.96932 -4.749673,3.90539 -0.910495,-0.16946 -0.894024,-1.30321 -1.089739,-2.00749 -1.165617,-5.0226 -1.606649,-10.17401 -2.184231,-15.28682 -0.259453,-2.96072 -0.540243,-5.9515 -0.273735,-8.91439 0.171315,-0.58745 0.886314,-0.67022 1.294447,-0.27732 1.444489,0.97147 2.782174,2.11204 4.141984,3.20677 6.973075,5.85832 13.029927,12.69793 19.419407,19.17572 4.5167,4.81865 9.20541,9.56538 14.73925,13.22588 6.18057,4.33505 12.63525,8.26709 19.14185,12.08729 3.15049,1.65391 6.67141,2.47642 10.20427,2.73012 7.47481,0.84261 15.12439,-0.13375 22.17389,-2.74301 11.04205,-3.94472 20.6556,-11.0308 29.11647,-19.01721 2.15602,-2.03377 4.36218,-4.03493 6.35888,-6.22207 0.71865,-0.96571 1.45712,-2.15515 1.07355,-3.40951 -0.19985,-1.06068 -0.68097,-2.35855 -1.82119,-2.67076 -1.1489,-0.087 -1.72222,1.13688 -2.4133,1.83736 -1.77757,2.08191 -3.39739,4.47986 -5.90797,5.72253 -0.88438,0.10182 -1.16776,-0.96196 -1.3133,-1.62453 -1.07402,-4.38016 -1.67456,-8.87798 -1.98446,-13.37596 -0.0239,-1.02179 -0.0952,-2.08546 0.15542,-3.07017 0.57146,-0.67661 1.49369,-0.0753 1.97528,0.4056 4.26504,3.26687 7.58541,7.55393 11.38771,11.32196 2.20254,2.20864 4.28387,4.53198 6.41082,6.81069 9.64569,9.95777 20.4825,19.06463 33.11953,24.97432 6.08589,2.82068 12.80045,4.56601 19.54513,4.12473 7.0826,-0.27289 14.18688,-1.68991 20.64944,-4.64914 2.14239,-1.06413 4.30149,-2.21999 6.08102,-3.82839 0.28238,-0.7835 -0.63352,-1.12744 -1.11526,-1.50056 -1.76167,-1.40627 -2.30086,-3.77252 -2.70488,-5.8778 -0.45322,-0.74898 -1.44781,-0.34934 -2.05023,-0.0347 -3.25176,1.26672 -6.28294,3.38723 -9.83088,3.6611 -0.88486,-0.45664 -0.72348,-1.64065 -1.0425,-2.44598 -2.51823,-10.29556 -4.33259,-20.74675 -6.36957,-31.14704 -1.53053,-8.10024 -3.06322,-16.20386 -4.5154,-24.31605 0.50526,-0.72282 1.48646,-0.19809 2.1929,-0.2469 2.24834,0.13513 4.54281,0.69797 6.77914,0.25004 0.74491,-0.70189 0.008,-1.69272 0.0769,-2.53453 -0.14288,-1.59411 0.29784,-3.38278 1.63162,-4.35667 0.19028,-0.28441 0.0953,-0.71384 -0.20728,-0.88058 z m -20.26041,10.09782 c 0.98884,1.1927 0.84863,2.85394 1.36315,4.2473 3.93559,17.12213 6.87416,34.44889 10.25987,51.68377 0.0969,0.63812 0.26315,1.3141 0.20803,1.94611 -0.71696,0.58552 -1.68666,0.0666 -2.51538,0.19325 -3.1019,-0.0568 -6.29359,0.14508 -9.27404,-0.83535 -1.03267,-1.07166 -0.97365,-2.67473 -1.49774,-3.99046 -2.79513,-10.71061 -4.84484,-21.59249 -6.99739,-32.44772 -0.97467,-5.23705 -1.9597,-10.49476 -2.44641,-15.79782 0.16244,-1.48998 1.73374,-2.05624 2.82811,-2.75459 2.22628,-1.21053 4.63127,-2.25355 7.18285,-2.43174 0.2995,0.003 0.63338,0.0185 0.88895,0.18725 z m -18.7164,8.69132 c 1.12252,1.73419 1.12419,3.88209 1.75723,5.79809 2.75008,11.94668 5.0735,23.99121 6.95365,36.10308 0.10707,1.00457 0.33173,2.09174 0.1143,3.06685 -0.68082,0.61912 -1.56529,-0.0918 -2.25464,-0.32246 -3.15462,-1.3993 -6.0837,-3.30627 -8.93294,-5.24936 -1.65818,-1.19941 -3.03164,-2.8176 -3.67132,-4.78099 -1.29422,-3.48659 -1.6318,-7.20763 -2.25532,-10.85085 -0.62781,-4.42709 -1.4925,-8.8374 -1.72451,-13.30686 -0.072,-1.59581 0.28396,-3.3515 1.54315,-4.45832 1.39522,-1.36894 2.97181,-2.53715 4.40613,-3.86386 1.02917,-0.82946 2.03093,-1.81544 3.30009,-2.25229 0.24252,-0.0327 0.57586,-0.0666 0.76418,0.11696 z m -63.60835,-3.94439 c 3.69797,2.53048 7.68527,4.70143 11.28506,7.3549 0.47767,1.18045 0.31508,2.49497 0.57779,3.72548 1.11846,9.80324 2.38719,19.58818 3.42095,29.40094 -0.69922,1.06811 -2.0398,1.37047 -2.96194,2.19201 -2.21948,1.44093 -4.39446,3.19958 -7.00525,3.81808 -0.94235,-0.44083 -0.84584,-1.68556 -1.11885,-2.54037 -1.20477,-5.65548 -1.67388,-11.43262 -2.41753,-17.15688 -0.98427,-8.88944 -1.88142,-17.80671 -2.55477,-26.71623 0.18247,-0.21764 0.54765,-0.23364 0.77454,-0.0779 z m -9.26542,-2.58813 c 1.01377,1.07647 0.81416,2.67697 1.17124,4.01039 1.64687,10.99107 2.11963,22.11501 3.28267,33.16141 0.46103,5.12469 1.02365,10.25095 1.33652,15.38225 -0.71313,0.77187 -1.88978,0.52612 -2.78556,0.94209 -2.45884,0.641 -5.09676,1.41685 -7.61837,0.78613 -0.95071,-0.79266 -0.74551,-2.16499 -1.0711,-3.24432 -1.5132,-9.00403 -2.18437,-18.11834 -3.05463,-27.19873 -0.738,-8.47664 -1.4524,-16.96169 -2.10829,-25.44087 0.48131,-0.70845 1.43712,-0.17235 2.12118,-0.19559 2.94216,0.26972 6.13124,0.23821 8.72634,1.79724 z m -20.82019,0.4657 c 0.97898,1.44123 0.68589,3.28897 1.10216,4.90726 1.86868,14.00183 3.12747,28.0792 4.14315,42.16447 0.0999,1.9077 0.24551,3.85925 0.0465,5.74528 -0.5119,0.989 -1.85291,0.87683 -2.75928,0.67859 -2.31253,-0.50423 -4.40566,-1.69044 -6.70561,-2.24479 -1.31343,-0.38679 -2.71673,-1.18373 -3.10436,-2.61762 -0.88771,-2.35818 -1.01027,-4.9258 -1.40199,-7.40489 -0.82572,-7.18452 -1.31999,-14.40084 -2.02434,-21.59858 -0.36802,-4.43117 -0.79052,-8.87869 -0.57458,-13.32741 0.16433,-1.65815 1.0211,-3.41352 2.65601,-4.03225 1.93124,-0.92391 3.98185,-1.62616 6.04,-2.22746 0.84199,-0.19195 1.74258,-0.29319 2.58231,-0.0426 z m -74.005863,3.39353 c 0.910104,0.88854 0.812588,2.2909 1.108846,3.43997 2.01661,12.02527 3.070731,24.2138 4.161878,36.32745 0.10236,1.05889 -0.223718,2.16121 -1.036723,2.87117 -1.472637,1.50717 -3.421225,2.41265 -5.244932,3.40988 -0.528335,0.23842 -1.433324,0.62128 -1.685202,-0.18027 -0.384955,-1.00943 -0.397711,-2.11849 -0.690776,-3.1564 -1.893622,-10.10408 -3.089092,-20.31852 -4.456523,-30.50282 -0.582687,-4.8085 -1.188003,-9.62901 -1.315739,-14.47116 0.24355,-0.82218 1.260889,-0.71239 1.891689,-0.51324 2.534442,0.54523 5.0645,1.40866 7.267482,2.77542 z"
       id="path1203"
       inkscape:connector-curvature="0" />
  </g>
</svg>
